<?xml version="1.0" encoding="utf-8"?>
<!-- Generator: Adobe Illustrator 24.1.1, SVG Export Plug-In . SVG Version: 6.00 Build 0)  -->
<svg version="1.1" id="Camada_1" xmlns="http://www.w3.org/2000/svg" xmlns:xlink="http://www.w3.org/1999/xlink" x="0px" y="0px"
	 viewBox="0 0 1080 1080" style="enable-background:new 0 0 1080 1080;" xml:space="preserve">
<style type="text/css">
	.st0{fill:#FEFEFE;}
	.st1{fill:#B8E8FC;}
	.st2{fill:#0E2C68;}
	.st3{fill:#F9CD7A;}
	.st4{fill:#82D2FB;}
	.st5{fill:#EDC607;}
	.st6{fill:#61B5FE;}
	.st7{fill:#DFF8FD;}
	.st8{fill:#DEF8FD;}
	.st9{fill:#83D2FB;}
	.st10{fill:#89D5FB;}
	.st11{fill:#FAB262;}
	.st12{fill:#1D319A;}
	.st13{fill:#5294E4;}
	.st14{fill:#5293E4;}
	.st15{fill:#3957C8;}
	.st16{fill:#4373D2;}
	.st17{fill:#F8CC79;}
	.st18{fill:#F748B3;}
	.st19{fill:#3956C8;}
</style>
<g>
	<g>
		<path class="st0" d="M527.56,1072.12c-170.94,0-341.89-0.03-512.83,0.13c-5.27,0-7.01-0.5-7.01-6.58
			c0.2-350.47,0.2-700.93-0.01-1051.4c0-6.19,1.92-6.51,7.07-6.51c222.39,0.14,444.79,0.12,667.18,0.12
			c0.23,0.98-0.04,1.79-0.82,2.42c-8.75,3.01-17.97,1.5-26.95,2.86c-36.63,5.55-71.5,15.96-102.75,36.3
			c-10.33,6.72-21.66,7.55-33.08,8.59c-5.79,0.53-11.48,1.12-17.04,2.77c-34.69,5.4-69.02,12.35-102.21,24.08
			c-26.04,9.2-51.4,19.96-75.71,33.16c-4.08,2.22-8.02,4.97-12.89,5.36c-5.12-1.37-3.99-6.06-4.83-9.53
			c-3.03-12.49-11.54-20.13-23.56-20.8c-13.25-0.73-23.09,5.51-27.08,17.2c-3.72,10.89,0.93,23.25,11.62,30.08
			c3.62,2.31,7.9,3.9,3.78,9.2c-14.3,13.09-30.73,23.61-44.69,37.13c-1.4,1.36-3.28,1.93-5.33,1.56c-4.32-1.78-3.72-5.72-3.93-9.21
			c-0.26-4.41,0.22-8.86-0.7-13.24c-2.72-12.91-13.58-19.4-26.22-15.67c-9.55,2.81-16.53,8.67-20.92,17.62
			c-11.41,23.31-14.79,48.47-17.32,73.88c-2.05,20.63-3.7,41.28-5.12,61.96c-0.17,2.47-0.2,5.83-2.9,6.31
			c-3.08,0.55-4.64-2.56-5.73-5.14c-5.93-13.97-6.94-28.96-9.12-43.72c-3.35-22.74-2.3-45.8-5.02-68.58
			c-0.83-6.94-1.45-14.64-9.39-17c-8.28-2.46-14.99,1.82-20.55,7.84c-7.89,8.54-10.44,19.51-12.65,30.28
			c-3.57,17.44-3.31,35.21-1.95,52.9c1.04,13.5,2.47,26.98,4.88,40.33c0.51,2.85,1.71,6.97-1.93,7.94
			c-3.86,1.03-5.57-2.94-6.69-6.05c-6.86-18.99-13.63-38.02-18.44-57.67c-1.65-6.74-3.59-13.35-6.76-19.56
			c-1.54-3.01-3.49-5.61-6.16-7.7c-6.66-5.22-11.89-4.88-17.17,1.77c-9.41,11.85-10.84,25.63-9.1,40.11
			c2.82,23.55,9.78,46.05,18.86,67.75c6.92,16.53,9.77,33.28,8.74,50.97c-0.29,4.96-0.01,9.96-0.01,14.94
			c1.44,27.95,7.47,54.77,19.72,80.05c1.54,3.17,3.98,6.01,3.24,9.91c-2.63,2.74-6.1,2.13-9.34,2.27
			c-21.02,0.88-31.06,15.91-23.92,35.82c0.93,2.6,2.18,5.08,2.94,7.75c1.07,14.58-3.28,28.46-5.52,42.61
			c-5.54,34.95-10.8,69.9-13.91,105.19c-2.43,27.53-5.32,55.04-6.18,82.64c-0.91,29.3-0.9,58.68,0.08,87.97
			c0.51,15.4,0.89,30.9,3.29,46.27c4.35,27.87,13.83,53.5,31.2,75.9c19.26,24.84,43.44,42.97,73.02,54.08
			c28.54,10.72,57.64,11.96,87.31,6.86c18.44-3.95,35.72-11.05,52.38-19.73c10.98-5.73,21.87-11.65,32.03-18.81
			c2.06-1.45,4.39-2.31,7-2.12c12.23,5.05,23.19,12.5,34.91,18.54c32.43,16.71,66.29,29.53,101.56,38.73
			c23.24,6.42,47.05,9.78,70.77,13.62c4.93,0.8,9.88,1.01,14.84,1.39C523.26,1068.47,527,1067.66,527.56,1072.12z"/>
		<path class="st0" d="M1072.12,603.93c0,153.72-0.04,307.43,0.16,461.15c0.01,5.99-1.24,7.22-7.22,7.21
			c-155.37-0.2-310.75-0.16-466.12-0.16c0.87-4.63,4.77-3.72,7.74-3.94c4.9-0.36,9.84-0.1,14.66-1.32
			c30.21-4.39,60.09-10.54,89.74-17.74c0.69-0.52,1.43-0.96,2.2-1.34c9.85-2.98,19.63-6.22,29.2-10.04
			c0.74-0.31,1.51-0.56,2.28-0.79c10.36-4.69,20.97-8.76,31.6-12.8c0.6-0.5,1.24-0.94,1.89-1.36c6.78-2.76,13.29-6.07,19.57-9.85
			c4.94-1.24,8.78-4.45,12.85-7.25c31.3-17.04,59.64-38.25,86.76-61.24c10.51-8.91,19.94-18.93,30.17-28.11
			c12.52-12.81,24.25-26.32,35.46-40.29c7.73-13.1,17.76-24.6,25.73-37.54c15.78-25.63,29.94-51.98,41.76-79.77
			c13.36-31.42,23.13-63.79,29.63-97.11c2.4-12.3,8.66-24.08,6.27-37.21c-0.2-5.19,1.02-10.22,1.84-15.28
			C1068.66,606.9,1068.6,603.98,1072.12,603.93z"/>
		<path class="st1" d="M622.18,1068.79c-4.64,2.61-9.73,1.21-14.61,1.7c-2.91,0.29-6.14-0.99-8.62,1.63c-23.8,0-47.59,0-71.39,0
			c-10.22-3.23-20.99-2.59-31.47-4.3c-21.4-3.48-42.66-7.33-63.65-12.73c-1.2-2.52-2.13-5.13-1.85-7.97
			c3.18-31.94-2.73-63.17-7.44-94.48c-0.78-5.21-1.14-10.42-0.98-15.67c-0.33-10.26,7.13-17.68,9.86-26.98
			c8.04-27.39,14.83-54.94,17.51-83.42c4.7-20.5,3.36-41.23,1.5-61.83c-0.84-9.31-2.09-18.66-3.3-27.98
			c-6.3-48.73-22.55-93.85-48.65-135.46c-1.61-2.57-3.48-5.04-3.3-8.32c5.57-6.21,13.59-8.27,20.81-11.11
			c24.36-9.61,48.04-20.83,72.52-30.12c3.07-1.17,5.97-3.03,9.49-1.9c10.36,10.17,23.34,13.22,37.25,15.72
			c23.92,4.3,47.86,7.82,72.1,9.42c8.22-0.69,16.19,1.64,24.33,1.91c2.15,0.07,4.35,0.69,5.17,3.2c-4.83,4.93-10.84,2.86-16.36,2.42
			c-10.64-0.85-10.6-1.09-12.26,9.64c-5.48,35.22-1.07,69.08,13.9,101.51c1.08,2.34,3.09,4.84,0.25,7.42
			c-21.2-0.29-42.4-0.18-63.6-0.2c-3.86,0-7.73-0.21-11.47,1.05c-18.49,0.21-33.11,7.46-42.95,23.51
			c-5.45,8.89-6.26,18.95-6.31,28.81c-0.32,60.8-0.33,121.6-0.05,182.4c0.09,20.01,6.45,36.93,26.27,46.07
			c6.21,2.87,12.59,3.88,19.3,3.9c24.87,0.08,49.74-0.27,74.62,0.17c2.12,0.18,4.11,0.7,5.69,2.25c2.94,7.57,2.63,15.19,0.34,22.84
			c-3.22,3.54-7.57,2.76-11.6,2.82c-13.22,0.21-26.46-0.43-39.66,0.29c-11.82,0.64-18.18,9.56-15.18,20.38
			c1.89,6.83,7.49,10.62,17.56,10.91c13.76,0.4,27.54,0.32,41.31-0.01c2.72-0.06,5.49-0.91,8.12,0.52
			C626.2,1054.41,628.98,1062.3,622.18,1068.79z"/>
		<path class="st0" d="M681.99,9.5c-0.01-0.54-0.02-1.08-0.02-1.61c127.72,0,255.45,0.06,383.17-0.18c6.14-0.01,7.15,1.46,7.14,7.28
			c-0.18,169.75-0.15,339.49-0.15,509.24c-4.54-0.51-3.47-4.32-3.88-6.98c-4.1-26.2-7.21-52.54-13.93-78.33
			c-9.52-36.55-22.74-71.59-39.71-105.31c-4.09-8.12-9.55-15.58-12.24-24.4c-1.34-8.23-0.66-16.53-0.69-24.79
			c-0.1-27.87,0.18-55.74-0.11-83.61c-0.23-22.16-9.05-40.15-27.77-52.62c-12.49-8.32-27.07-8.75-41.34-9.95
			c-6.6-0.56-13.23,0.06-19.82,0.71c-4.78-0.3-6.99-3.84-9.36-7.32c-22.69-33.3-50.31-61.54-85.09-82.35
			c-24.11-14.43-49.58-25.26-77.25-31.06c-17.36-3.64-34.64-7.01-52.46-6.6c-1.94,0.04-3.87-0.18-5.62-1.18
			C682.57,10.13,682.28,9.82,681.99,9.5z"/>
		<path class="st2" d="M1004.07,310.31c35.01,59.37,55.61,123.55,64.45,191.75c0.96,7.39-0.03,15.19,3.6,22.17
			c0,26.56,0,53.13,0,79.69c-3.51,6.81-2.48,14.35-3.49,21.56c-1.64,4.96-0.14,10.26-1.95,15.34c-1.18,3.29-2.45,3.83-5.25,2.48
			c-2.22-1.08-4.48-2.14-6.43-3.65c-13.26-10.26-27.71-18.61-42.42-26.57c-9.09-5.83-8.64-15.83-10.83-24.7
			c-0.88-40.1-0.57-80.19-0.29-120.28c0.33-48.11,0.02-96.22,0.27-144.32c0.02-4.11-0.63-8.32,1.22-12.26
			C1003.32,311.12,1003.7,310.71,1004.07,310.31z"/>
		<path class="st1" d="M298.9,997.22c-7.91,2.06-13.87,7.7-20.65,11.71c-21.98,13.02-44.86,23.68-69.76,29.73
			c-42.52-1.61-67.69-27.23-85.41-62.49c-16.77-33.35-23.18-69.49-27.74-106.16c-4.25-34.11-6.03-68.32-4.96-102.59
			c1.08-34.78,4.41-69.45,7.42-104.13c2.01-23.2,6.3-46,8.97-69.06c1.1-9.49,3.15-10.75,12.55-8.67c27.5,6.09,55.36,7.14,83.34,5.43
			c11.97-0.73,12.13-1.03,11.82,10.92c-0.02,0.83,0.02,1.66,0.07,2.49c-3.14,21.32-5.03,42.72-4.95,64.31
			c0.11,28.23,1.98,56.26,8.11,83.89c0.9,4.04,1.68,8.12,1.78,12.27c1.71,15.38,5.77,30.34,8.17,45.62
			c1.45,9.27,8.29,14.94,16.3,14.28c8.67-0.71,14.65-7.5,13.88-17.33c-1.21-15.39-2.81-30.77-6.52-45.84
			c-2.48-10.09-1.86-21.04-8.44-29.97c-0.06-7.76,5.74-12.41,10.09-17.42c23.77-27.31,49.12-53.05,77.61-75.54
			c5.63-4.44,10.74-9.52,16.48-13.84c2.89-2.18,5.73-4.42,9.72-3.77c10.16,6.91,13.8,18.3,19.05,28.42
			c17.89,34.45,27.16,71.49,30.74,109.92c1.97,21.15,0.18,42.37-2.09,63.46c-0.47,4.39-0.58,8.77-0.93,13.15
			c-2.73,23.16-8.16,45.71-16.19,67.57c-3.21,8.74,0.99,16.21,2.11,24.23c-0.71,3.51-3.33,5.67-5.88,7.74
			c-25.09,20.3-50.43,40.25-77.31,58.16C303.96,995.25,301.78,996.94,298.9,997.22z"/>
		<path class="st2" d="M217.31,766.32c-4.83-25.53-8.94-51.15-10-77.17c-1.16-28.53,0.2-56.9,5-85.08
			c0.8-7.89,3.16-13.99,11.26-18.23c9.77-5.12,12.77-18.79,8.6-30.08c-3.67-9.96-15.16-16.82-26.48-15.81
			c-3.77,0.34-7.53,2.1-11.32,0.06c-2.35-4.05,1.32-5.39,3.49-6.91c12.52-8.79,21.64-20.41,28.67-33.79
			c3.89-7.39,9.07-13.82,14.28-20.26c12.99-13.55,28.69-23.33,45.05-32.12c12.2-6.55,24.99-11.81,37.88-16.87
			c10.42-4.08,12.01-14.12,3.58-21.52c-9.59-8.42-21.09-10.61-33.34-9.37c-18.08,1.82-35.13,7.32-51.49,15.14
			c-3.15,1.51-6.6,4.42-10.03,2.06c-3.85-2.65-1.92-7.05-1.47-10.79c3.8-31.68,14.16-61.31,28.11-89.83
			c10.71-21.89,20-44.38,27.68-67.5c3.07-9.24,4.61-18.88,4.23-28.59c-0.55-13.88-10.84-20.01-23.65-14.5
			c-6.58,2.83-11.26,7.95-15.45,13.51c-14.09,18.71-24.13,39.64-33.17,61.09c-4.61,10.95-8.86,22.07-13.34,33.08
			c-1.07,2.62-1.66,6.83-5.7,5.71c-3.51-0.98-3.2-4.97-2.97-7.89c1.18-14.88,2.6-29.73,5.39-44.42
			c4.28-22.55,7.53-45.29,12.42-67.74c0.98-4.47,1.78-8.72,6.5-10.79c15.9-12.85,31.79-25.7,47.69-38.56
			c3.56-3.6,7.58-5.59,12.93-5.81c8.64-0.36,15.54-4.38,20.3-11.93c2.12-3.37,3.56-7.54,7.99-8.91
			c23.72-12.31,47.49-24.46,72.56-33.94c38.39-14.51,77.88-24.41,118.59-29.47c8.49-2.75,17.4-1.75,26.07-2.92
			c1.86-0.25,4.15-0.36,5.15,1.72c1.06,2.2-0.87,3.53-2.19,4.83c-4.93,4.85-10.73,8.64-15.96,13.15
			c-17.68,15.25-32.92,32.58-46.19,51.72c-2.51,3.62-4.8,7.47-9.05,9.46c-12.54,1.98-25.33,2-37.86,2.14
			c-25.91,0.27-49.66,18.13-55.54,44.54c-0.3,1.35-0.62,2.69-0.97,4.04c-1.16,4.09-0.69,8.27-0.69,12.4
			c-0.03,77.19,1.02,154.4-0.39,231.57c-0.92,50.59,0.09,101.17-1.29,151.73c-0.17,2.8-0.82,5.54-2.69,7.66
			c-6.34,7.18-6.91,15.26-4.1,23.96c0.77,2.4,1.4,4.81-0.59,6.99c-18.59,12.79-35.31,27.86-51.8,43.14
			c-21.56,19.98-42.18,40.87-59.53,64.75c-0.84,5.25-5.15,8.35-7.71,12.52c-3.6,5.87-7.77,11.37-11.03,17.48
			C223.25,762.83,222.07,766.91,217.31,766.32z"/>
		<path class="st3" d="M221.07,187.7c-4.18,3.95-3.98,9.42-4.94,14.45c-6.58,34.45-13.58,68.84-16.79,103.84
			c-0.35,3.83-0.46,7.68-0.69,11.51c3.91,0.75,3.57-2.23,4.27-4.01c9.24-23.64,18.36-47.34,30.44-69.75
			c6.56-12.17,13.36-24.2,23.42-33.91c2.75-2.65,5.9-5.18,9.32-6.78c14.61-6.82,27.04,0.89,27.29,17.12
			c0.29,19.22-6.92,36.72-13.52,54.29c-9.62,25.58-23.65,49.23-32.86,75c-7.19,20.1-12.47,40.63-14.63,61.9
			c-0.13,1.32,0.19,2.68,0.35,4.64c9.54-3.92,18.51-8.04,27.77-11.31c18.4-6.5,37.04-11.09,56.71-5.25
			c6.2,1.84,10.84,5.71,14.72,10.28c7.33,8.64,3.45,18.82-8.38,23.13c-23.44,8.54-45.69,19.38-65.86,34.21
			c-5.78,4.25-11.53,8.58-16.19,14.12c-10.17,5.41-21.51,6.97-32.52,9.08c-33.85,6.51-66.55,2.43-97.15-13.82
			c-32.12-17.06-54.72-43.02-68.79-76.48c-1.39-14.83,1.36-29.81-1.91-44.59c-2.28-10.31-6.9-19.73-10.35-29.59
			c-8.19-23.45-16.15-46.97-16.18-72.2c-0.01-10.39,3.04-19.95,9.17-28.65c9.61-13.65,21.66-6.76,27.34,3.59
			c8.72,15.89,9.99,34.33,16.42,51.07c3.84,10.02,6.9,20.33,10.34,30.51c0.63,1.87,1.49,3.6,4.63,3.59
			c-2.45-15-4.63-29.93-5.67-44.98c-1.66-24.05-2.08-48.01,6-71.23c3.14-9.01,7.49-17.22,16.34-21.95
			c14.78-7.89,25.06-2.61,26.46,14.08c1.53,18.13,2.13,36.33,3.58,54.47c1.56,19.5,3.22,39.03,9.63,57.74
			c0.88,2.55,1.25,5.41,4.64,8.16c0.75-9.81,1.56-18.84,2.12-27.89c1.59-25.86,3.57-51.69,8.55-77.16
			c2.76-14.08,6.48-27.95,13.33-40.71c8.37-15.6,33.33-25.42,45.68-9.99c4.56,5.7,5.55,12.32,6,19.35
			C219.47,178.28,216.79,183.52,221.07,187.7z"/>
		<path class="st4" d="M194.21,538.34c3.9,0.96,7.68-0.27,11.51-0.58c14.01-1.14,26.22,7.09,29.67,19.93
			c3.66,13.64-2.32,27.17-15.6,32.7c-6.88,2.87-4.18,9.63-7.48,13.69c-0.31-10.99-0.3-10.53-11.34-10.22
			c-28.66,0.81-57.3,0.62-85.28-6.89c-4.49-1.2-6.07-0.05-6.52,4.31c-3.07,30.02-8.55,59.71-10.34,89.95
			c-1.45,24.41-4.2,48.71-5.08,73.22c-0.56,15.7-1.53,31.43-0.96,47.08c1.07,29.08,3.27,58.07,7.47,86.97
			c2.47,16.96,6.18,33.53,10.74,49.83c7.3,26.07,18.09,50.74,37.27,70.72c15.67,16.32,34.92,25.53,57.33,28.29
			c1,0.12,1.92,0.87,2.88,1.32c-24.4,4.84-48.86,5.17-72.9-1.36c-45.43-12.34-80.27-38.45-103.46-80.09
			c-13.93-25.02-19.08-51.76-20.99-79.86c-1.93-28.45-1.41-56.89-1.55-85.34c-0.18-35.08,3.12-69.94,5.99-104.88
			c2.78-33.83,8.13-67.25,12.51-100.82c1.74-13.36,4.44-26.6,7.13-39.81c0.85-4.15,1.04-8.18,0.91-12.32
			c3.85-0.37,5.09,2.93,6.82,5.18c14.09,18.35,33.1,29.84,53.81,39.02c1.26,0.56,2.63,0.86,3.94,1.29c4.19,1.38,5.83,0.14,4.56-4.28
			c-1.56-5.43-1.54-10.82-0.38-16.39c2-9.58,6.65-16.98,15.95-20.74c3.95-1.59,5.88-5.94,10.16-6.95
			c19.31,4.31,38.82,6.33,58.6,5.58C191.23,536.85,192.84,537.31,194.21,538.34z"/>
		<path class="st1" d="M459.31,136.56c15.68-24.02,33.85-45.9,55.79-64.5c5.54-4.7,11.31-9.13,17.92-14.43
			c-11.49-1.26-21.66,1.2-31.89,1.45c6.78-4.14,14.49-3.34,21.75-3.27c15.93,0.16,27.75-9.18,40.62-16.15
			c22.37-12.13,46.12-20.07,70.99-25.34c15.74-3.33,31.47-5.09,47.49-4.82c0,0-0.08,0.09-0.08,0.09c0.97,3.66-1.75,5.63-3.82,7.62
			C662.06,32.66,651.91,51.59,645,72.45c-2.88,8.69-2.94,17.85-4.03,26.84c-0.46,3.84-0.49,7.73-3.67,10.59
			c-3.11,1.88-6.82,1.21-10.09,2.45c-28.45,4.2-56.77,9.15-84.34,17.42c-14.27,4.28-28.45,9.26-41.88,15.63
			c-15.85,7.51-28.37,18.88-34.46,36.25c-3.1,8.85-6.94,17.4-9.05,26.64c-2.02,8.85-5.74,9.71-12.4,3.16
			c-4.2-4.13-8.81-7.49-13.93-10.28c-2.2-2.81-1.29-5.82-0.25-8.64c6.75-18.33,14.24-36.32,24.77-52.88
			C456.57,138.22,457.49,136.86,459.31,136.56z"/>
		<path class="st2" d="M298.9,997.22c13.99-10.28,28.14-20.34,41.93-30.88c15.98-12.22,31.63-24.87,47.43-37.34
			c3.19-1.71,5.9,0.05,8.39,1.53c6.33,3.75,12.84,4.18,19.64,1.74c3.83-1.37,7.01-1.47,8.02,3.51c0.51,19.91,5.28,39.3,7.25,59.06
			c2.01,20.11,3.86,40.13,0.87,60.27c-45.56-12.73-89.01-30.43-129.49-55.09C301.54,999.16,300.24,998.15,298.9,997.22z"/>
		<path class="st5" d="M194.21,538.34c-22.04,2.24-43.74,0.52-65.08-5.49c-11.13,1.79-19.08-5.44-27.83-10.09
			c-5.05-2.68-9.49-6.59-13.25-11c-6.51-7.65-13.72-14.62-20.58-21.93c-10.65-19.76-17.91-40.7-21.59-62.84
			c-1.48-8.94-3.33-17.87-2.84-27.04c8.1,11.08,13.97,23.53,22.55,34.42c25.15,31.88,57.18,50.42,97.72,55.39
			c24.48,3,47.62-1.97,70.91-7.55c2.43-0.58,4.76-1.35,7.29-1.06c-4.64,5.43-8.94,11.11-12.19,17.5
			C221.05,514.95,209.41,528.21,194.21,538.34z"/>
		<path class="st6" d="M67.47,489.84c5.42,2.38,10.03,6,13.32,10.75c11.89,17.19,28.93,26.45,48.34,32.27
			c-0.44,3.87-3.35,5.47-6.39,6.94c-13.63,6.6-19.19,18.56-15.95,33.18c0.72,3.26,4.12,7.58,0.96,9.78
			c-1.97,1.38-6.81-0.61-10.04-1.9c-24.75-9.93-46.02-24.55-61.57-46.66c-7.84-10.7-8.57-22.02-1.61-33.16
			C42.28,488.66,54.53,487.84,67.47,489.84z"/>
		<path class="st1" d="M309.98,122.5c-1.69,2.76-3.49,5.46-5.06,8.29c-5.36,9.65-13.54,14.98-24.53,15.22
			c-4.31,0.09-7.95,1.37-11.63,3.15c0.11-1.97,3.99-3.48-1-5.87c-15.9-7.62-19.63-24.04-13.78-36.08
			c9.09-18.69,25.27-20.25,40.38-12.91c8.25,4.01,13.06,12.31,13.97,22.04C308.53,118.49,308,120.82,309.98,122.5z"/>
		<path class="st3" d="M361.84,51.21c-12.5,0.08-21.79-8.96-21.61-21.02c0.16-11.07,9.61-20.44,20.8-20.62
			c10.84-0.18,21.72,10.11,21.85,20.67C383.01,41.56,373.41,51.13,361.84,51.21z"/>
		<path class="st7" d="M623.93,700.12c-10.95-19.4-16.16-40.26-18.77-62.42c-2.13-18.12,0.91-35.54,1.98-53.27
			c0.42-6.98,5.1-5.94,8.69-5.09c7.13,1.7,14.23,1.31,21.38,1.25c8.65-4.43,17.82-2.44,26.71-1.68c13.8,1.18,27.49,0.81,41.3,0.02
			c20.1-1.15,40.21-1.65,60.26-3.91c27.44-3.09,54.72-6.99,81.83-12.34c9.05-1.78,14.62-8.54,22.02-12.59
			c5.65-1.3,10.06,2.27,14.76,4.18c24.68,10.01,49.27,20.25,73.73,30.79c2.93,1.26,6.45,2.02,7.54,5.79
			c0.39,2.72-1.13,4.7-2.54,6.77c-16.94,24.82-29.39,51.84-38.23,80.45c-9.48,30.69-16.4,61.91-16.18,94.31
			c-1.04,32.9,1.06,65.5,8.19,97.74c3.52,15.89,8.86,31.27,12.5,47.11c-24.06,24.6-50.35,46.46-78.71,65.99
			c-12.64,8.71-25.52,16.86-39.05,24.06c-4.11-5.95-5.4-12.14-1.63-18.78c2.4-1.68,5.19-1.68,7.94-1.9
			c25.04-1.93,42.32-20.01,42.64-45.32c0.35-27.92,0.08-55.84,0.09-83.77c0.01-35.39-0.6-70.79,0.21-106.16
			c0.56-24.74-18.87-49.32-49.09-48.85c-58.04,0.89-116.11,0.29-174.16,0.21C632.77,702.7,627.84,703.84,623.93,700.12z"/>
		<path class="st1" d="M1014.15,612.03c18.16,8.19,34.03,20.11,50.7,31.76c1.37-6.64,2.58-12.48,3.79-18.31
			c0.9,17.08-5.92,32.8-8.96,49.17c-4.62,24.89-12.04,49.25-21.61,72.59c-10.7,26.09-22.79,51.61-37.45,75.99
			c-11.33,18.84-24.56,36.24-36.45,54.6c-4.2-8.84-4.68-18.64-6.64-27.97c-5.17-24.67-6.82-49.76-5.27-74.98
			c0.85-22.38,3.54-44.41,9.28-66.21c9.03-34.26,23.21-65.99,42.9-95.38C1007.55,608.67,1010.58,609.81,1014.15,612.03z"/>
		<path class="st6" d="M954.25,773.27c-0.35,31.1,1.03,62,9.29,92.26c1.06,3.87,0.46,8.19,0.62,12.3
			c-11.36,13.41-22.3,27.21-35.05,39.39c-3.35-1.3-3.72-4.44-4.57-7.32c-6.24-21.36-11.24-42.99-15.02-64.93
			c-4.19-24.33-3.93-48.81-3.4-73.33c3.63-1,5.38,1.97,7.65,3.7c9.8,7.48,21.7,7.75,31.95,0.75
			C948.26,774.36,950.35,770.96,954.25,773.27z"/>
		<path class="st8" d="M622.18,1068.79c3.95-6.7-0.75-14.78,3.41-21.45c1.32-2.23,3.84-3.06,5.59-4.81
			c8.13-8.17,7.36-18.6-1.93-25.38c-1.95-1.43-4.61-2.07-5.4-4.8c0.03-7.7,0.06-15.4,0.09-23.1c2.5-2.82,5.94-2.74,9.21-2.76
			c22.38-0.13,44.75-0.14,67.13-0.01c2.77,0.02,5.54,0.23,7.99,1.76c3.83,4.14,2.83,9.33,2.73,14.16
			c-0.27,12.68-0.07,25.36-0.12,38.03c-0.01,3.57-0.18,7.23,2.62,10.1c-19.97,4.22-39.41,10.76-59.76,13.34
			C643.2,1065.23,632.71,1067.14,622.18,1068.79z"/>
		<path class="st1" d="M713.51,1050.55c-5.7,0.45-5.01-3.59-5.01-7.14c0-18.07-0.01-36.15-0.01-54.22
			c-0.46-9.14,4.68-16.63,12.68-18.51c10.7-2.51,18.82,0.98,22.75,9.81c1.46,3.28,2.32,6.75,3.11,10.25
			c1.23,13.49,0.47,26.99,0.52,40.49c0.01,2.8-0.55,5.49-2.53,7.67c-0.51,0.08-1.03,0.11-1.55,0.11c-3.96-4.84-1.8-10.6-2.34-15.95
			c-0.36-3.54,0.47-7.16-0.63-11.3c-9.03,5.4-18.1,6.69-28.15-1.27c0.55,14.07-0.99,26.39,1.37,38.67
			C713.68,1049.63,713.61,1050.09,713.51,1050.55z"/>
		<path class="st1" d="M809.85,989.22c-1.16,6.16,1.66,11.98,1.5,18.05c-3.95,2.98-7.26,7.21-13,6.76
			c-7.14,3.13-13.79,2.74-19.97-3.54c-2.57,5.13-0.68,9.48,0.13,13.82c-0.06,0.46-0.14,0.92-0.25,1.37c-6.31,2.41-6.9-2.14-7.3-6.3
			c-0.94-9.8,0.35-19.51,1.58-29.21c0.77-14.06,7.84-20.67,21.25-19.9C805.16,970.91,810.61,977.35,809.85,989.22z"/>
		<path class="st8" d="M774.94,989.13c-0.33,10.07-2.48,20.02-1.72,30.18c0.27,3.55,0.16,6.77,5.06,6.37
			c-11.08,4.41-22.16,8.81-33.24,13.22c0.02-16.57,0.04-33.13,0.06-49.7C755.03,984.95,764.98,985.09,774.94,989.13z"/>
		<path class="st9" d="M713.73,1049.16c-2.07-0.46-3.52-1.49-3.52-3.85c0-12.81,0-25.63,0-40.49c5.67,5.6,9.78,9.38,16.5,9.43
			c6.78,0.06,10.94-3.97,16.77-8.59c0,12.12,0,22.73,0,33.34C734,1043.69,724.14,1047.24,713.73,1049.16z"/>
		<path class="st10" d="M778.52,1024.31c-2.91-2.58-5.08-14.27-3.12-16.85c1.53-2.01,3.21-0.82,3.94,0.44
			c4.55,7.84,12.09,5.93,19.01,6.13C792.66,1019.22,785.65,1021.89,778.52,1024.31z"/>
		<path class="st4" d="M774.94,989.13c-9.95,0.02-19.9,0.04-29.85,0.06c-1.56-1.07-1.35-2.82-1.81-4.37
			c-3.07-10.53-6.7-12.85-18.89-12.36c-7.32,0.3-12.56,5.44-14.38,13.95c-0.21,0.99-1,1.85-1.53,2.77
			c-28.18,0.02-56.37,0.05-84.55,0.07c-1.71-0.07-3.43-0.14-5.14-0.21c-10.2-6.73-13.04-16.28-8.14-26.22
			c3.33-6.75,8.42-9.38,15.93-9.34c32.02,0.19,64.04,0.09,96.05,0.08c28.15-0.01,56.31,0.01,84.46-0.01c3.84,0,7.77,0.46,11.22-1.89
			c5.36-3.14,7.14-8.02,7.14-13.96c0.03-61.75,0.05-123.51-0.01-185.26c-0.01-6.2-1.84-11.38-7.4-14.72
			c-3.7-2.58-7.94-1.95-12.04-1.95c-58.5-0.02-117,0-175.51-0.02c-18.44-0.01-25.72-9.65-19.89-27c2.03-6.05-1.25-5.89-5.12-5.91
			c-15.45-0.06-30.91,0.06-46.36-0.07c-4.05-0.03-8.38,0.71-11.73-2.63c1.24-0.5,2.49-1.46,3.72-1.42
			c24.26,0.64,48.59-1.76,72.8,1.4c63.92,0.04,127.83,0.03,191.75,0.17c26.09,0.06,47.14,21.23,47.17,47.35
			c0.07,63.92-0.26,127.84,0.16,191.75c0.18,27.6-21.78,52.39-49.84,49.77c-1.09-0.1-2.21,0.04-3.32,0.06
			c-0.52-0.93-1.33-1.81-1.53-2.81c-2.31-11.79-6.64-14.84-19.98-13.93C780.57,973.02,775.16,979.73,774.94,989.13z"/>
		<path class="st9" d="M871.02,550.78c-11.37,14.51-28.39,15.36-44.49,18.19c-38.29,6.74-76.86,10.29-115.72,12.29
			c-24.66,1.27-49.07-1.12-73.6-0.68c-9.85-2.35-19.87-3.12-29.97-3.23c-19.95-21.03-18.98-47.12,2.43-65.5
			c6.11-0.05,12.22,0.42,18.34-0.07c20.1,2.12,40.28,1.34,60.43,1.67c33.52,0.54,66.71-2.65,99.88-7.14
			c16.18-2.19,32.16-5.14,48.12-8.42c5.22-1.07,10.42-1.28,15.54,0.51c13.62,5.48,23.54,14.32,25.69,29.62
			C878.85,536.46,877.82,544.54,871.02,550.78z"/>
		<path class="st6" d="M819.73,954.36c-2.78,2.76-6.29,1.55-9.46,1.55c-61.02,0.08-122.05,0.26-183.07-0.19
			c-8.08-0.06-12.16,2.95-15.13,9.5c-2.63,5.8-2.04,11.16,1.68,16.29c1.77,2.45,3.37,5.02,5.05,7.53
			c-26.26,0.02-52.53,0.16-78.79,0.04c-19.67-0.09-39.35-17.14-42.29-36.49c-1.12-7.35-1.7-14.74-1.68-22.22
			c0.14-58.61-0.03-117.22,0.18-175.83c0.04-10.41,0.5-21.03,6.36-30.31c10.39-16.45,24.95-25.25,44.83-24.08
			c20.71,0.05,41.41,0.06,62.12,0.19c2.35,0.01,5.36-1.16,6.89,1.36c1.72,2.84-1.3,4.35-2.68,6.24c-3.73,5.12-4.33,10.49-1.59,16.27
			c2.88,6.09,6.4,9.5,14.33,9.44c61.29-0.44,122.59-0.27,183.88-0.18c3.11,0,6.7-1.43,9.28,1.79c-4.29,3.57-9.46,2.47-14.32,2.48
			c-84.18,0.23-168.36-0.11-252.54-0.28c-4.11-0.01-8.32-0.56-12.1,1.74c-5.63,2.64-5.46,7.79-5.48,12.79
			c-0.07,22.64-0.03,45.28-0.03,67.92c0,38.65-0.03,77.31,0.03,115.96c0.01,4.64-0.59,9.49,3.02,13.33
			c3.61,3.68,8.26,2.67,12.58,2.66c84.63-0.12,169.26-0.49,253.89-0.24C809.78,951.63,815.3,950.3,819.73,954.36z"/>
		<path class="st11" d="M360.89,585.7c-0.36-47-1.1-94,0.39-141c0.11-3.32,0.08-6.64,0.08-9.96c0-77.18-0.02-154.35,0.04-231.53
			c0-6.04-0.67-12.19,1.52-18.07c4.12,4.09,2.69,9.35,2.69,14.15c0.1,77.39,1.67,154.83-0.65,232.15
			c-1.06,35.3,32.48,56.03,60.11,51.79c15.3-2.35,27.72-8.83,37.27-20.94c2.54-3.22,4.71-6.96,9.41-7.5
			c8.57,2.1,11.77,10.29,17.06,15.85c8.13,8.55,15.86,17.47,24.72,25.31c1.62,1.44,3.51,2.84,2.57,5.51
			c-5.82,5.97-14.23,8.94-17.9,17.61c-3.53,8.35-4.5,16.21-1.24,24.63c0.84,2.17,2.73,4.35,0.65,6.84
			c-33.71,14.05-67.43,28.11-101.14,42.16c-1.43,0.34-2.87,0.04-3.8-0.95c-8.25-8.75-18.16-8.62-28.67-5.57
			C362.9,586.53,361.85,586.34,360.89,585.7z"/>
		<path class="st4" d="M360.89,585.7c13.64-6.7,25.6-4.85,35.57,7.03c14.34,20.35,25.42,42.59,34.06,65.69
			c9.11,24.36,16.16,49.47,19.27,75.64c3,25.19,5.68,50.29,4.72,75.69c-0.22,5.79-0.88,11.42-3.19,16.78
			c-2.68-2.36-2.34-5.48-1.89-8.47c2.11-14.01,0.53-28.08,1.21-43.27c-12.4,13.23-26.04,12.94-41.89,5.72
			c0.32,12.68-0.72,24.58-1.63,36.49c-0.38,4.97-0.75,9.91-1.92,14.75c-0.49,2.02-0.62,4.58-3.7,4.65
			c0.42-20.35,4.15-40.51,3.18-60.95c-1.14-24.17-4.33-47.83-10.7-71.39c-6.53-24.13-16.44-46.52-27.87-68.4
			c-2.65-5.07-5.24-10.96-11.27-13.58c1.15-4.18-2.3-7.05-3.06-10.73C349.62,600.87,354.02,592.88,360.89,585.7z"/>
		<path class="st6" d="M401.5,836.4c4.27-14.04,3.66-28.63,4.78-43.01c0.44-5.63,0.07-11.33,0.07-17.53
			c16.15,10.71,33.49,11.19,46.53-8.43c-0.22,21.18,0.7,40.14-1.57,59.1c-0.81,25.74-8.08,50.22-14.25,74.95
			c-2.99,11.97-9.5,22.51-12.75,34.31c-1.33-1.72-2.48-3.96-5.25-2.44c-10.09,5.51-19.07,2.51-27.74-3.43
			c-0.84-0.57-2.04-0.62-3.06-0.91c-10.39-16.78-0.19-32.23,3.71-47.77C395.69,866.37,399.07,851.5,401.5,836.4z"/>
		<path class="st6" d="M497.6,550.56c-10.38-21.86-3.77-39.81,18.28-49.66c3.91-4.85,9.44-4.58,14.41-3.43
			c23.31,5.42,47.03,8.08,70.66,11.36c2.98,0.41,5.98,1.08,7.95,3.78c-1.11,7.49-8.25,11.18-10.97,17.98
			c-5.73,14.29-2.08,26.67,5.48,38.7c1.62,2.57,3.53,4.89,3.83,8.05c-22.92-1.59-45.77-3.78-68.16-9.17
			c-9.72-2.34-20.28-0.97-29.21-6.97C505.3,558.15,500.88,555.05,497.6,550.56z"/>
		<path class="st9" d="M623.85,1012.35c18.85,6.12,18.23,22.63,8.94,31.69c-2.08,2.03-4.24,3.42-7.2,3.3
			c-18.08,3.07-36.31,1.73-54.41,1.04c-10.93-0.42-17.27-9.21-16.34-18.98c1.05-11.05,7.6-16.94,19.34-17.02
			C590.74,1012.27,607.3,1012.35,623.85,1012.35z"/>
		<path class="st7" d="M637.15,109.15c2.79-6.19,2.05-13.01,2.58-19.41c1.55-18.52,8.77-34.82,17.73-50.47
			c6.41-11.18,15.79-20.19,24.44-29.67c26.49-1.89,52.14,3.71,77.2,10.77c26.21,7.38,50.41,19.81,72.98,35.37
			c30.57,21.07,55.29,47.55,75.3,78.64c0.73,1.14,1.92,1.98,2.89,2.96c14.14,18.85,24.02,39.6,28.09,62.95
			c-7.64,3.43-14.23,8.21-19.63,14.68c-1.3,1.56-2.91,3.72-5.51,1.58c-4.01-7.32-6.19-15.36-8.7-23.21
			c-7.75-24.26-21.93-41.18-46.68-51.06c-41.81-16.68-85.04-26.29-129.46-30.2c-22.97-2.02-46.21-4.36-69.49-0.99
			C651.85,112.1,644.05,113.48,637.15,109.15z"/>
		<path class="st3" d="M937.72,200.34c-5.6-20.45-14.96-39.27-24.97-57.82c-0.91-1.68-1.64-3.46-2.47-5.19
			c17.38-2.35,34.59-1.91,51.61,2.8c25.17,6.97,41.85,32.56,41.92,58.28c0.11,37.3,0.18,74.6,0.26,111.9c0,0-0.05,0.33-0.05,0.33
			c-1.64,2.85-0.77,5.95-0.78,8.92c-0.07,42.3-0.55,84.61,0.26,126.9c0.24,12.69-5.27,21.25-13.7,28.62
			c-25.93,22.67-66.87,16.39-85.28-12.76c-2.07-3.27-4.03-6.6-6.45-9.63c-2.02-3.41,0.43-5.79,2.11-8.16
			c16.95-23.9,28.25-50.45,36.96-78.22c0.91-2.91,1.67-5.87,4.35-7.79c7.8-3.28,11.35-9.25,13.07-17.52
			c4.99-24.08,6.54-48.33,5.47-72.82c-1.87-11.93-3.63-23.88-5.49-35.81C952.57,219.66,950.39,207.31,937.72,200.34z"/>
		<path class="st11" d="M898.12,451.25c5.04,0.73,5.99,5.29,7.82,8.75c14.26,26.89,53.46,34.02,75.74,17.68
			c3.05-2.24,6.44-3.75,9.34-6.56c9.7-9.41,11.85-20.41,11.61-33.55c-0.73-39.49-0.3-79.01-0.19-118.51
			c0.01-2.81-1.49-6.13,1.58-8.44c-0.1,48.04-0.2,96.07-0.3,144.11c-0.1,45.27-0.21,90.54-0.32,135.81
			c-5.95-0.77-10.01-6.28-16.48-6.14c-6.31,0.14-12.51-0.27-17.55,4.6c-1.31,1.27-2.97,2.5-5.11,1.51
			c-26.02-11.09-52.05-22.17-78.07-33.26c-5.06-2.16-10.12-4.33-15.18-6.49c9.62-24.43,4.4-38.63-18.34-49.83
			c-0.57-3.63,2.04-5.71,4.32-7.43c14.18-10.77,24.93-24.72,36.16-38.25C894.53,453.61,895.6,451.51,898.12,451.25z"/>
		<path class="st9" d="M964.27,590.53c15.61-11.87,24.52-11.86,39.14,0.02c1.97,4.48,4.59,8.84,4.23,13.93
			c-0.35,4.92,5,4.49,6.51,7.55c-4.04-1.1-6.43-0.53-8.89,3.93c-6.07,11.06-13.18,21.52-19,32.78
			c-5.71,11.05-10.17,22.52-14.35,34.17c-6.8,18.93-11.67,38.35-14.86,58.18c-1.56,9.7-2.11,19.51-1.47,29.36
			c0.06,0.91-0.86,1.87-1.33,2.81c-1.74,0.05-3.1,0.82-4.44,1.92c-14.04,11.55-27.4,11.16-40.41-1.09
			c-0.99-0.93-2.18-1.65-3.28-2.47c0.47-37.54,8.74-73.5,21.31-108.71c7.71-21.61,18.2-41.75,29.65-61.52
			C959.28,597.61,963.78,595.39,964.27,590.53z"/>
		<path class="st9" d="M217.31,766.32c8.73-9.52,13.32-21.9,21.86-31.56c1.43-1.62,2.89-3.2,4.34-4.8
			c4.17,4.59,6.47,9.77,7.52,16.09c3.2,19.22,7.1,38.33,9.16,57.73c1.42,13.39-2.48,19.73-13.57,22.96
			c-8.94,2.61-19.61-4.15-21.19-13.37C222.75,797.68,220.02,782,217.31,766.32z"/>
		<path class="st3" d="M473.95,456.23c-8.43-0.62-9.5,7.84-13.32,12.04c-9.76,10.71-21.67,16.11-35.23,17.46
			c-26.95,2.68-46.15-6.78-60.18-31.34c-2.15-3.76-1.99-7.36-1.99-11.14c-0.04-82.72-0.02-165.43-0.04-248.15
			c0-3.31-0.17-6.63-0.27-9.94c6.04-28.52,27.79-47.15,56.78-48.2c13.19-0.48,26.41-0.28,39.61-0.39
			c-10.79,19.15-20.65,38.72-27.39,59.72c-0.42,1.3-0.59,2.68-0.88,4.02c-18.29,10.56-17.31,29.73-20.39,46.82
			c-1.2,6.64-1.39,13.61-1.95,20.44c0.12,23.39-1.01,46.84,3.62,69.98c1.69,8.47,3.61,16.92,13.03,20.53
			c3.9,2.22,5.55,6.05,6.66,10.03c8.47,30.25,23.21,57.39,40.95,83.07C473.99,452.63,475.68,454.15,473.95,456.23z"/>
		<path class="st4" d="M637.15,109.15c11.88,0.37,23.71-1.18,35.54-1.36c47.33-0.71,93.98,4.45,139.86,16.68
			c19.5,5.2,38.34,12.13,56.69,20.07c19.36,8.38,29.84,25.46,36.61,44.78c3.18,9.08,5.75,18.37,8.6,27.57
			c-0.19,8.75-7.08,14.48-9.95,22.07c-4.28,11.31-9.32,22.34-9.42,34.76c-0.61,22.45,4.84,43.11,18.01,61.53
			c1.3,1.82,2.2,3.82,2.32,6.11c-8.05,33.62-21.86,63.92-47.84,87.99c-25.66,23.77-55.55,39.17-88.53,50.03
			c-30.45,10.02-61.63,15.72-93.37,16.59c-19.1,0.52-38.6-1.2-57.36-6.53c-4.16-1.36-8.43-2.23-12.76-2.8c-2.65-0.35-5.6-0.09-7-3.2
			c1.86-3.31,1.42-6.61,0.65-10.24c-2.37-11.12,1.86-19.85,11.73-25.38c5.36-1.07,10.52,0.44,15.54,1.76
			c42.54,11.16,83.92,4.31,125-7.71c20.81-6.09,40.79-14.24,58.61-26.71c24.89-17.42,43.06-39.59,51.94-69.63
			c10.74-36.33,12.89-72.7,6.66-109.84c-2.07-12.35-6.57-23.97-10.21-35.86c-5.58-18.19-21.21-23.67-36.72-29.02
			c-56.36-19.46-114.51-26.45-173.91-24.38c-6.62,0.23-13.12,2.11-19.81,1.59c-2.18-0.06-4.37-0.12-6.56-0.17
			c-11.95-0.3-17.81-8.88-14.5-20.54c1.87-6.57,7.22-10.76,10.21-16.51C630.08,107.85,633.82,109.76,637.15,109.15z"/>
		<path class="st6" d="M627.15,110.8c5.42,1.92,1.94,3.32-0.17,5.15c-6.59,5.7-10.19,12.4-7.96,21.59
			c1.59,6.54,5.02,9.24,11.68,8.18c2.13-0.34,4.38,0.07,6.58,0.13c-3.84,6.41-10.89,2.82-16.03,5.19
			c-36.07,3.57-70.37,13.88-103.77,27.49c-8.25,3.36-13.5,9.48-17.17,18c-16.19,37.53-19.08,76.72-13.07,116.32
			c5.86,38.59,19.92,73.72,53.39,97.7c17.9,12.83,37.52,22.22,58.39,29.09c2.89,0.95,5.88,1.59,8.62,2.95
			c4.03,2.96,10.51,1.08,13.25,6.63c-10.57,8.72-12.39,14.57-7.92,28.15c1.5,4.56-0.4,5.42-4.12,5.48c-3,2.68-6.34,1.4-9.4,0.46
			c-25.35-7.74-49.88-17.38-72.33-31.76c-26.33-16.86-47.06-38.93-61.01-66.94c-3.89-7.82-7.42-16.01-9.55-24.61
			c-1.46-5.91-3.35-11.64-5.87-17.17c6.04-10.77,12.02-21.49,16.84-32.97c5.62-13.38,4.71-26.78,4.39-40.54
			c-3.84-0.1-5.13,2.78-7.18,4.4c-19.66,15.42-48.95,8.92-58.12-6.8c0.97-17.96,3.59-35.67,8.41-53.01
			c2.23-8.02,7.93-12.32,16.03-13.6c10.1,0.24,14,9.8,22,15.16c3.36-12.58,7.22-24.22,11.68-35.69
			c6.84-17.57,19.43-29.57,35.91-36.78c24.43-10.68,49.86-19.08,76.09-24.15C593.41,115.63,610.01,111.41,627.15,110.8z"/>
		<path class="st12" d="M819.73,954.36c-91.15,0-182.31,0.02-273.46-0.02c-3.72,0-7.94,0.97-10.36-3.33
			c1.86-1.66,4.11-1.29,6.31-1.23c21.55,0.61,43.1,0.16,64.65,0.25c11.18,0.05,11.18-0.05,11.14-10.86
			c-0.04-10.78,0.03-21.55-0.03-32.33c-0.03-4.42-0.01-8.86-1.85-13.02c-0.25-7.17,0.38-14.33,0.31-21.5
			c2.08-3.84,1.74-8.06,1.58-12.13c-0.59-14.54,1.87-29.21-1.86-43.61c0.03-6.42,0.28-12.84,0.45-19.26
			c2.62-17.3,0.81-34.71,1.36-52.05c0.2-6.38-4.53-5.88-8.65-5.89c-19.59-0.08-39.18,0.04-58.78-0.09
			c-4.02-0.03-8.4,0.79-11.63-2.79c2.44-1.87,5.31-1.24,8-1.24c90.9-0.02,181.81,0,272.71,0.01c6.61,3.55,8.57,9.17,8.55,16.49
			c-0.17,62.32-0.18,124.64,0,186.96C828.21,945.83,825.9,950.94,819.73,954.36z"/>
		<path class="st7" d="M628.86,487.68c27.66,5.13,55.27,7.47,83.52,3.92c24.43-3.07,48.13-8.49,71.41-16.03
			c22.64-7.34,43.46-18.22,63.03-31.92c20.21-14.16,36.34-31.91,48.44-53.06c8.04-14.06,12.57-29.82,17.32-45.33
			c0.4-1.31,0.41-2.72,1.73-3.56c1.76,0.08,3.2,0.98,4.26,2.21c6.23,7.23,13.84,12.58,22.4,16.65
			c-8.77,32.83-23.03,63.08-42.85,90.69c-12.86,18.65-28.92,34.38-45.43,49.7c-12.98-4.24-24.84,2.17-37.19,3.94
			c-25.82,3.7-51.59,7.54-77.63,9.58c-18.74,1.46-37.44,1.42-56.17,1.46c-18.18,0.04-36.39,0.48-54.5-1.77
			c-3.13-1.47-6.46-0.51-9.68-0.73c-9.09-0.62-12.22-5.28-10.79-16.2c1.17-8.91,5.85-12.52,14.13-10.63
			C623.52,487.21,626.37,486.08,628.86,487.68z"/>
		<path class="st1" d="M628.86,487.68c-2.99-0.15-6.21,0.35-8.92-0.61c-3.62-1.29-5.16,0.11-7.49,2.57
			c-5.41,5.69-4.39,12.47-2.65,18.47c1.48,5.1,7.44,4.51,12.11,4.52c1.91,0.01,3.87-0.14,5.3,1.53c-6.13-0.21-12.4,1.31-18.3-1.53
			c-26.1-4.53-52.71-5.99-78.42-12.97c-4.82-1.31-9.8-0.09-14.6,1.25c-15.24-13.71-29.28-28.54-41.93-44.68
			c-14.49-20.03-26.51-41.42-36.23-64.19c-4.42-10.36-5.86-21.72-11.22-31.7c10.22-2.76,17.25-10.19,24.78-16.89
			c3.95,0.16,3.83,3.72,4.46,6.04c4.16,15.39,9.76,30.06,17.77,43.97c10.88,18.88,25.21,34.45,42.33,47.67
			c17.07,13.18,36.15,23.02,56.04,30.75c11.87,4.61,23.9,9.84,36.95,10.99C615.17,485.88,622.72,483.86,628.86,487.68z"/>
		<path class="st2" d="M617.86,816.31c2.09,3.04,2.69,6.4,2.66,10.08c-0.12,12.82-0.07,25.65-0.03,38.47
			c0.01,3.04,0.18,6.07-2.74,8.1c-4.77-1.23-6.82-6.06-11.13-8.17c-10.5-5.12-20.18-2.86-27.48,7.16
			c-5.21,7.15-3.99,18.23,2.74,24.85c8.77,8.64,17.92,9.31,27.37,2.29c2.82-2.1,4.58-5.62,8.42-6.35c2.44,2.94,2.78,6.39,2.85,10.07
			c0.3,15.4-1,30.83,0.73,46.19c0.31,2.76-0.69,3.62-2.96,3.56c-27.45-0.82-54.98,2.05-82.38-1.54c-3.77-2.16-3.69-5.88-3.69-9.47
			c-0.02-64.36,0.01-128.72-0.07-193.09c-0.01-5.47,1.36-9.75,6.77-11.96c24.79,0.1,49.58,0.3,74.37,0.23
			c5.6-0.02,8.54-0.22,7.62,7.7c-1.46,12.5-0.62,25.3-0.32,37.97c0.13,5.59-1.13,10.9-1.85,16.32c-3.87-0.48-4.74-4.31-7.13-6.45
			c-7.93-7.09-17.82-8.36-25.81-3.05c-8.71,5.79-12.05,15.77-8.48,25.31c3.08,8.21,12.84,13.94,21.89,13
			c4.96-0.52,8.65-3.32,12.28-6.33C613.54,819.47,614.66,816.52,617.86,816.31z"/>
		<path class="st6" d="M892.85,273.53c-0.07-12.92,4.8-24.5,10.15-35.84c3.37-7.14,7.61-13.88,11.46-20.8
			c7.1-6.43,11.53-16.63,23.26-16.55c9.67,1.88,14.43,8.26,16.35,17.49c3.38,16.22,6.19,32.52,7.54,49.05
			c-8.25,12.67-28.92,19.11-44.26,13.8c-8.76-3.03-16.61-7.43-22.77-15.51C896.54,269.02,897.74,272.07,892.85,273.53z"/>
		<path class="st13" d="M892.85,273.53c2.91-2.26,0.7-5.83,2.41-8.96c5.23,3.38,9.37,8.15,14.92,11.03
			c14.85,7.7,33.77,6.41,47.93-6.7c0.96-0.89,2.33-1.35,3.5-2.01c2.64,27.63-0.18,54.91-6.16,81.85
			c-1.54,6.94-7.32,10.72-14.47,11.84c-13.49,0.22-18.86-11.03-26.66-18.86c-10.72-15.13-18.15-31.58-20.82-50.11
			C892.62,285.55,892.99,279.55,892.85,273.53z"/>
		<path class="st14" d="M451.27,343.45c-5.95,9.02-12.24,17.55-24.78,16.89c-8.17-1.07-12.46-6.04-14.42-13.78
			c-6.63-26.23-6.71-52.88-5.46-79.64c9.08,6.61,17.9,13.31,30.14,13.44c12.27,0.13,22.51-3.53,30.93-12.45
			c1.43-1.52,2.81-4.18,5.18-3.4c2.65,0.87,1.32,3.8,1.55,5.84c2.9,24.99-5.35,47.01-18.26,67.73
			C454.9,340.1,452.92,341.67,451.27,343.45z"/>
		<path class="st12" d="M620.51,149.08c5.59-1.08,11.18-2.16,16.77-3.23c20.96-1.75,41.97-2.39,62.98-1.56
			c41.58,1.65,82.4,7.91,121.98,21.19c7.32,2.46,14.47,5.63,21.79,7.72c16.05,4.59,23.65,16.09,28.55,30.61
			c16.96,50.24,16.25,100.38-0.95,150.38c-10.79,31.38-32.65,53.46-60.75,69.53c-35.89,20.51-75.45,29.36-116.11,33.57
			c-22.26,2.31-44.03-2.35-65.72-6.84c-2.7-0.56-5.45-0.83-8.18-1.23c-4.48-1.56-8.96-3.11-13.44-4.67c8.37-3.76,8.7-3.9,4.91-12.88
			c-11.51-27.29-20.94-55.18-27.59-84.1c-3.06-13.28-4.93-26.64-6.17-40.11c-2.06-22.33-1.8-44.68,1.47-66.91
			c4.67-31.68,15.45-60.93,34.79-86.75C616.41,151.73,618.37,150.35,620.51,149.08z"/>
		<path class="st2" d="M620.51,149.08c-17.38,22.54-28.33,48.2-35.76,75.41c-2.08,7.61-2.77,15.66-3.54,23.56
			c-2.13,21.93-1.52,43.82,0.26,65.8c1.48,18.23,6.03,35.75,10.47,53.24c6.01,23.65,15.21,46.3,24.38,68.9
			c3.7,9.12,3.63,9.14-6.41,8.48c-0.82-0.05-1.66,0.04-2.48,0.07c-32.38-9.52-62.18-23.48-86.07-48.32
			c-17.42-18.12-26.34-40.23-32.2-64.05c-11.75-47.79-8.67-94.44,10.31-139.96c3.19-7.64,9.08-12.56,16.37-15.54
			c30.33-12.4,61.44-22.17,94.12-26.15C613.49,150.12,616.78,148,620.51,149.08z"/>
		<path class="st15" d="M784.92,828.05c7.58,17.79,3.14,34.33-7.09,49.06c-17.18,24.74-43.68,28.61-67.93,20.28
			c-11.8-4.05-20.92-12.45-27.02-23.12c-7.16-12.5-10.84-25.69-7.86-40.88c3.62-18.43,23.11-40.19,41.83-43.46
			c7.74-1.35,15.54-3.7,23.35-0.18c-2.78,4.01-7.48,5.51-11.07,8.5c-12.61,10.51-16.76,25.89-10.8,40.91
			c5.18,13.05,20.36,22.4,35.09,21.61c15.07-0.81,27.86-12.64,29.64-27.46C783.3,831.4,783.22,829.43,784.92,828.05z"/>
		<path class="st16" d="M784.92,828.05c1.54,15.88-6.53,25.46-20.25,31.78c-13.22,6.09-25.18,3.74-36.25-4.66
			c-12-9.11-16.91-21.41-14.29-36.27c2.64-14.96,12.29-23.98,26.08-29.14c20.11,1.76,32.52,14.02,41.65,30.65
			C783.16,822.8,783.91,825.5,784.92,828.05z"/>
		<path class="st17" d="M617.86,816.31c-10.28,15.12-24.07,18.13-36.04,7.88c-7.38-6.32-10.37-15.75-7.13-24.61
			c3.31-9.02,10.18-14.62,19.62-15.64c9.46-1.02,17.06,3.09,22.08,11.44c0.7,1.16,1.55,2.22,2.33,3.33
			C619.72,804.64,619.96,810.53,617.86,816.31z"/>
		<path class="st18" d="M617.68,892.74c-10.41,15.32-25.5,17.71-37.33,5.92c-9.46-9.43-9-23.88,1.06-32.89
			c10.02-8.98,25.71-7.56,33.65,3.06c0.98,1.31,1.8,2.74,2.7,4.11C620.06,879.56,619.77,886.15,617.68,892.74z"/>
		<path class="st15" d="M829.71,237.81c-0.16,18.76-18.01,35.86-37.26,35.71c-18.51-0.15-35.98-17.97-35.75-36.46
			c0.25-20.07,17.79-36.89,38.12-36.56C812.9,200.79,829.87,218.93,829.71,237.81z"/>
		<path class="st19" d="M748.45,289.86c0.03,10.62-7.61,18.61-17.68,18.52c-9.72-0.09-17.29-8.14-17.27-18.36
			c0.02-11.36,6.54-17.97,17.92-18.16C741.75,271.69,748.42,278.74,748.45,289.86z"/>
	</g>
</g>
</svg>
