<?xml version="1.0" encoding="utf-8"?>
<!-- Generator: Adobe Illustrator 24.1.1, SVG Export Plug-In . SVG Version: 6.00 Build 0)  -->
<svg version="1.1" id="Camada_1" xmlns="http://www.w3.org/2000/svg" xmlns:xlink="http://www.w3.org/1999/xlink" x="0px" y="0px"
	 viewBox="0 0 1280 800" style="enable-background:new 0 0 1280 800;" xml:space="preserve">
<style type="text/css">
	.st0{fill:#0E2C68;}
	.st1{fill:#FEFEFE;}
	.st2{fill:#DCE1E9;}
	.st3{fill:#D9DEE7;}
	.st4{fill:#DBDFE8;}
	.st5{fill:#D2D8E2;}
	.st6{fill:#CBD2DE;}
	.st7{fill:#DDE1E9;}
	.st8{fill:#B1BBCE;}
	.st9{fill:#C8CFDD;}
	.st10{fill:#BCC4D5;}
	.st11{fill:#C1C8D8;}
	.st12{fill:#C7CEDC;}
	.st13{fill:#D1D6E1;}
	.st14{fill:#C7CDDB;}
	.st15{fill:#BFC7D7;}
	.st16{fill:#EAEDF2;}
	.st17{fill:#B2BCCF;}
	.st18{fill:#E7EAF0;}
	.st19{fill:#FFFFFF;}
	.st20{fill:none;stroke:#FFFFFF;}
	.st21{font-family:'NexaBold';}
	.st22{font-size:244.6357px;}
	.st23{letter-spacing:-1;}
	.st24{font-size:48.2262px;}
</style>
<g>
	<path class="st0" d="M262.31,136.62c41.64,0.25,80.58,10.55,116.43,31.86c3.63,2.16,6.27,1.59,9.43-0.16
		c7.25-4.01,14.57-7.9,21.83-11.91c9.41-5.21,19-10.09,28.47-15.21c8.98-4.86,18.01-9.69,27.09-14.38c5.59-2.89,11-6.06,17.31-6.84
		c8.9-1.1,18.77,3.96,21.62,13.28c2.6,8.49,0.64,16.1-3.4,23.62c-5.04,9.38-9.53,19.06-14.73,28.34
		c-4.1,7.32-7.83,14.82-11.85,22.17c-3.87,7.08-7.86,14.11-11.29,21.4c-1.92,4.09-4.47,7.83-6.22,12.01
		c-0.68,1.63-0.54,2.72,0.36,4.15c17.31,27.67,28.56,57.66,32.58,90.03c8.81,70.85-10.24,133.45-58.1,186.55
		c-34.84,38.65-78.45,62.51-129.72,71.37c-56.33,9.73-109.32-0.24-158.54-29.52c-2.02-1.2-3.47-1.32-5.53-0.18
		c-19.51,10.84-39.48,20.83-58.95,31.74c-10.43,5.85-20.91,11.69-31.75,16.72c-9.69,4.5-22.45,2.88-28.7-7.4
		c-3.6-5.92-3.65-18.08,0.09-24.25c2.62-4.32,4.84-8.89,7.2-13.37c3.05-5.8,6.04-11.64,9.09-17.44c3.9-7.43,7.83-14.85,11.77-22.26
		c5.1-9.6,10.25-19.17,15.31-28.78c1.55-2.95,2.6-6.13,4.61-8.86c1.02-1.39-0.4-2.41-1.03-3.45
		c-13.35-22.18-23.15-45.81-28.17-71.23c-14.11-71.33,0.87-136.01,46.35-192.79c35.69-44.56,82.48-71.39,138.63-81.77
		c4.9-0.91,9.86-1.52,14.81-2.06C245.6,137.1,253.93,136.55,262.31,136.62z"/>
	<path class="st1" d="M486.23,142.09c-0.38,0.83-0.9,2.14-1.55,3.37c-18.64,35.51-37.32,71.01-55.92,106.54
		c-18.91,36.1-37.75,72.24-56.62,108.36c-12.75,24.41-25.51,48.8-38.24,73.22c-1.35,2.58-3.18,4.52-5.79,5.91
		c-44.01,23.43-88,46.9-131.98,70.39c-40.53,21.66-81.04,43.37-121.56,65.04c-11.28,6.03-22.57,12.05-33.91,17.97
		c-1.5,0.78-3.38,2.62-4.98,0.9c-1.53-1.65,0.28-3.42,1.1-4.98c15.32-29.29,30.68-58.57,46.01-87.86
		c18.86-36.01,37.7-72.03,56.56-108.04c12.93-24.68,25.87-49.35,38.8-74.02c2.31-4.41,4.95-8.7,6.81-13.3
		c2.93-7.28,8.62-11.37,15.17-14.85c19.62-10.42,39.17-20.97,58.78-31.42c19.8-10.55,39.65-21.02,59.45-31.56
		c33.49-17.82,66.96-35.66,100.43-53.51c20.28-10.81,40.53-21.67,60.8-32.5c1.43-0.76,2.92-1.43,4.39-2.11
		C486.13,138.65,486.44,139.84,486.23,142.09z"/>
	<path class="st2" d="M116.75,347.79c1.81,0.37,2.9,1.56,2.89,3.33c-0.01,1.53-1.08,2.68-2.68,2.68c-1.72,0-2.85-1.16-2.9-2.85
		C114.01,349.28,115.02,348.17,116.75,347.79z"/>
	<path class="st3" d="M111.03,273.86c-0.44,1.64-1.38,2.81-3.14,2.7c-1.72-0.11-2.84-1.22-2.73-2.99c0.11-1.71,1.23-2.83,3-2.71
		C109.88,270.98,110.77,272.19,111.03,273.86z"/>
	<path class="st4" d="M231.42,517.61c-1.8-0.24-3.08-1.09-3.2-2.81c-0.13-1.78,1.07-2.88,2.77-2.94c1.69-0.06,2.96,0.99,3.09,2.7
		C234.23,516.36,232.91,517.19,231.42,517.61z"/>
	<path class="st3" d="M186.35,194.36c-0.32,1.68-1.22,2.84-2.99,2.77c-1.77-0.07-2.79-1.34-2.75-2.97c0.04-1.64,1.11-2.85,2.91-2.75
		C185.27,191.51,186.13,192.69,186.35,194.36z"/>
	<path class="st5" d="M394.65,363.19c-0.29,1.5-1.15,2.62-2.8,2.49c-1.4-0.11-2.46-1.12-2.47-2.57c-0.01-1.59,0.99-2.68,2.64-2.7
		C393.71,360.4,394.51,361.5,394.65,363.19z"/>
	<path class="st6" d="M431.08,319.66c-0.22,1.63-1.11,2.66-2.73,2.63c-1.59-0.03-2.66-1.03-2.62-2.67c0.04-1.6,1.07-2.64,2.68-2.63
		C430.03,317,430.86,318.1,431.08,319.66z"/>
	<path class="st7" d="M443.26,382.15c-1.2,0.91-2.44,1.49-3.76,0.23c-1.36-1.31-1.12-2.67-0.07-4.03c1.64-1.02,3.01-0.61,4.27,0.73
		C444.89,380.32,443.91,381.2,443.26,382.15z"/>
	<path class="st8" d="M325.41,501.31c-0.21,0.97-0.77,1.59-1.77,1.47c-0.97-0.11-1.53-0.76-1.41-1.78c0.1-0.89,0.79-1.34,1.57-1.32
		C324.75,499.69,325.36,500.28,325.41,501.31z"/>
	<path class="st9" d="M267.21,210.83c0.88-0.01,1.47,0.41,1.55,1.28c0.08,0.89-0.48,1.43-1.33,1.51c-0.85,0.08-1.49-0.36-1.55-1.25
		C265.83,211.49,266.35,210.98,267.21,210.83z"/>
	<path class="st10" d="M283.11,229.23c0.89,0.1,1.36,0.68,1.36,1.5s-0.45,1.47-1.36,1.48c-0.91,0.01-1.36-0.65-1.36-1.47
		C281.76,229.92,282.2,229.32,283.11,229.23z"/>
	<path class="st11" d="M354.63,455.2c0.9,0.05,1.4,0.56,1.45,1.42c0.04,0.73-0.39,1.28-1.11,1.39c-0.88,0.13-1.49-0.33-1.61-1.21
		C353.24,455.9,353.77,455.4,354.63,455.2z"/>
	<path class="st12" d="M323.54,464.64c-0.08,1.01-0.6,1.5-1.44,1.54c-0.86,0.04-1.45-0.43-1.49-1.32c-0.05-0.92,0.56-1.37,1.39-1.43
		C322.88,463.37,323.32,463.95,323.54,464.64z"/>
	<path class="st13" d="M269.39,225.75c0.86,0.15,1.36,0.66,1.32,1.5c-0.03,0.84-0.53,1.4-1.41,1.36c-0.86-0.04-1.36-0.57-1.3-1.45
		C268.05,226.34,268.52,225.83,269.39,225.75z"/>
	<path class="st14" d="M195.3,230.3c0.01,0.85-0.37,1.44-1.25,1.5c-0.84,0.06-1.42-0.41-1.5-1.26c-0.08-0.86,0.42-1.4,1.26-1.5
		C194.69,228.94,195.14,229.47,195.3,230.3z"/>
	<path class="st15" d="M214.84,544.12c-0.24,0.85-0.64,1.5-1.52,1.46c-0.86-0.04-1.36-0.69-1.33-1.49c0.03-0.82,0.57-1.39,1.46-1.35
		C214.34,542.77,214.69,543.41,214.84,544.12z"/>
	<path class="st16" d="M314.55,178.92c0.06,0.86-0.18,1.62-1.11,1.66c-0.9,0.04-1.32-0.65-1.22-1.51c0.08-0.75,0.25-1.65,1.13-1.72
		C314.35,177.26,314.33,178.26,314.55,178.92z"/>
	<path class="st17" d="M352.64,534.6c1.07-0.02,1.61,0.41,1.7,1.27c0.08,0.75-0.36,1.19-1.05,1.35c-0.89,0.2-1.49-0.26-1.66-1.07
		C351.44,535.28,352.02,534.8,352.64,534.6z"/>
	<path class="st18" d="M328.86,196.6c-0.11,0.93-0.47,1.39-1.26,1.32c-0.74-0.06-1.17-0.51-1.12-1.26c0.04-0.73,0.48-1.2,1.23-1.17
		C328.49,195.52,328.71,196.13,328.86,196.6z"/>
	<path class="st0" d="M260.13,306.76c32.84-0.81,60.54,28.1,60.02,61.14c-0.5,32.09-27.74,59.65-61.05,59.27
		c-31.14-0.35-59.59-26.84-59.56-60.5C199.58,333.41,228.36,305.58,260.13,306.76z"/>
	<circle class="st19" cx="240.36" cy="193.02" r="1.61"/>
	<circle class="st19" cx="237.58" cy="219.55" r="1.61"/>
	<circle class="st19" cx="183.48" cy="194.27" r="2.99"/>
	<circle class="st19" cx="83.97" cy="286.19" r="1.43"/>
	<circle class="st19" cx="82.72" cy="302.7" r="1.43"/>
	<circle class="st19" cx="97.01" cy="312.91" r="1.43"/>
	<circle class="st19" cx="65.48" cy="377.96" r="1.43"/>
	<circle class="st19" cx="116.85" cy="350.79" r="3"/>
	<circle class="st19" cx="275.52" cy="537.74" r="3"/>
	<circle class="st19" cx="352.97" cy="535.93" r="1.43"/>
	<circle class="st19" cx="323.81" cy="501.23" r="1.65"/>
	<circle class="st19" cx="322.07" cy="464.8" r="1.65"/>
	<circle class="st19" cx="354.71" cy="456.62" r="1.65"/>
	<circle class="st19" cx="441.41" cy="380.44" r="3.02"/>
	<circle class="st19" cx="392.02" cy="363.05" r="2.87"/>
	<circle class="st19" cx="428.4" cy="319.64" r="2.87"/>
	<circle class="st19" cx="231.15" cy="514.73" r="3.14"/>
	<circle class="st19" cx="213.42" cy="544.16" r="1.53"/>
	<circle class="st19" cx="193.92" cy="230.41" r="1.38"/>
	<circle class="st19" cx="267.33" cy="212.23" r="1.61"/>
	<circle class="st19" cx="313.51" cy="178.95" r="1.61"/>
	<circle class="st19" cx="327.66" cy="196.71" r="1.38"/>
	<circle class="st19" cx="269.27" cy="227.19" r="1.61"/>
	<circle class="st19" cx="283.12" cy="230.72" r="1.61"/>
	<circle class="st19" cx="240.36" cy="244.65" r="1.61"/>
	<path class="st20" d="M240.36,193.02"/>
	<polyline class="st20" points="240.36,193.02 237.58,219.55 240.36,244.65 	"/>
</g>
<g>
	<text transform="matrix(1 0 0 1 527.9369 433.3678)" class="st0 st21 st22 st23">PYXIS</text>
	<text transform="matrix(1 0 0 1 593.6068 493.4756)" class="st0 st21 st24">EM DIREÇÃO AO FUTURO!</text>
</g>
</svg>
