<?xml version="1.0" encoding="utf-8"?>
<!-- Generator: Adobe Illustrator 24.1.1, SVG Export Plug-In . SVG Version: 6.00 Build 0)  -->
<svg version="1.1" id="Camada_1" xmlns="http://www.w3.org/2000/svg" xmlns:xlink="http://www.w3.org/1999/xlink" x="0px" y="0px"
	 viewBox="0 0 612 792" style="enable-background:new 0 0 612 792;" xml:space="preserve">
<style type="text/css">
	.st0{fill:#FEFEFE;}
	.st1{fill:#DCE1E9;}
	.st2{fill:#D9DEE7;}
	.st3{fill:#DBDFE8;}
	.st4{fill:#D2D8E2;}
	.st5{fill:#CBD2DE;}
	.st6{fill:#DDE1E9;}
	.st7{fill:#B1BBCE;}
	.st8{fill:#C8CFDD;}
	.st9{fill:#BCC4D5;}
	.st10{fill:#C1C8D8;}
	.st11{fill:#C7CEDC;}
	.st12{fill:#D1D6E1;}
	.st13{fill:#C7CDDB;}
	.st14{fill:#BFC7D7;}
	.st15{fill:#EAEDF2;}
	.st16{fill:#B2BCCF;}
	.st17{fill:#E7EAF0;}
	.st18{fill:#FFFFFF;}
	.st19{fill:none;stroke:#FFFFFF;}
</style>
<g>
	<path class="st0" d="M529.1,168.9c-1.5,0.7-3,1.4-4.4,2.1c-20.3,10.8-40.5,21.7-60.8,32.5c-33.5,17.9-66.9,35.7-100.4,53.5
		c-19.8,10.5-39.7,21-59.5,31.6c-19.6,10.5-39.2,21-58.8,31.4c-6.5,3.5-12.2,7.6-15.2,14.8c-1.9,4.6-4.5,8.9-6.8,13.3
		c-12.9,24.7-25.9,49.3-38.8,74c-18.9,36-37.7,72-56.6,108c-15.3,29.3-30.7,58.6-46,87.9c-0.8,1.6-2.6,3.3-1.1,5
		c1.6,1.7,3.5-0.1,5-0.9c11.3-5.9,22.6-11.9,33.9-18c40.5-21.7,81-43.4,121.6-65c44-23.5,88-47,132-70.4c2.6-1.4,4.4-3.3,5.8-5.9
		c12.7-24.4,25.5-48.8,38.2-73.2c18.9-36.1,37.7-72.3,56.6-108.4c18.6-35.5,37.3-71,55.9-106.5c0.6-1.2,1.2-2.5,1.5-3.4
		C531.5,169.1,531.2,167.9,529.1,168.9z M304.2,456.4c-31.1-0.4-59.6-26.8-59.6-60.5c0-33.3,28.8-61.1,60.6-59.9
		c32.8-0.8,60.5,28.1,60,61.1C364.8,429.2,337.5,456.8,304.2,456.4z"/>
	<path class="st1" d="M161.9,377c1.8,0.4,2.9,1.6,2.9,3.3c0,1.5-1.1,2.7-2.7,2.7c-1.7,0-2.9-1.2-2.9-2.9
		C159.1,378.5,160.1,377.4,161.9,377z"/>
	<path class="st2" d="M156.1,303.1c-0.4,1.6-1.4,2.8-3.1,2.7c-1.7-0.1-2.8-1.2-2.7-3c0.1-1.7,1.2-2.8,3-2.7
		C155,300.2,155.9,301.4,156.1,303.1z"/>
	<path class="st3" d="M276.5,546.8c-1.8-0.2-3.1-1.1-3.2-2.8c-0.1-1.8,1.1-2.9,2.8-2.9c1.7-0.1,3,1,3.1,2.7
		C279.3,545.6,278,546.4,276.5,546.8z"/>
	<path class="st2" d="M231.4,223.6c-0.3,1.7-1.2,2.8-3,2.8c-1.8-0.1-2.8-1.3-2.8-3c0-1.6,1.1-2.9,2.9-2.8
		C230.4,220.7,231.2,221.9,231.4,223.6z"/>
	<path class="st4" d="M439.8,392.4c-0.3,1.5-1.1,2.6-2.8,2.5c-1.4-0.1-2.5-1.1-2.5-2.6c0-1.6,1-2.7,2.6-2.7
		C438.8,389.6,439.6,390.7,439.8,392.4z"/>
	<path class="st5" d="M476.2,348.9c-0.2,1.6-1.1,2.7-2.7,2.6c-1.6,0-2.7-1-2.6-2.7c0-1.6,1.1-2.6,2.7-2.6
		C475.1,346.2,476,347.3,476.2,348.9z"/>
	<path class="st6" d="M488.4,411.4c-1.2,0.9-2.4,1.5-3.8,0.2c-1.4-1.3-1.1-2.7-0.1-4c1.6-1,3-0.6,4.3,0.7
		C490,409.5,489,410.4,488.4,411.4z"/>
	<path class="st7" d="M370.5,530.5c-0.2,1-0.8,1.6-1.8,1.5c-1-0.1-1.5-0.8-1.4-1.8c0.1-0.9,0.8-1.3,1.6-1.3
		C369.9,528.9,370.5,529.5,370.5,530.5z"/>
	<path class="st8" d="M312.3,240.1c0.9,0,1.5,0.4,1.5,1.3c0.1,0.9-0.5,1.4-1.3,1.5c-0.9,0.1-1.5-0.4-1.5-1.3
		C310.9,240.7,311.5,240.2,312.3,240.1z"/>
	<path class="st9" d="M328.2,258.5c0.9,0.1,1.4,0.7,1.4,1.5s-0.5,1.5-1.4,1.5c-0.9,0-1.4-0.6-1.4-1.5
		C326.9,259.1,327.3,258.5,328.2,258.5z"/>
	<path class="st10" d="M399.7,484.4c0.9,0,1.4,0.6,1.5,1.4c0,0.7-0.4,1.3-1.1,1.4c-0.9,0.1-1.5-0.3-1.6-1.2
		C398.3,485.1,398.9,484.6,399.7,484.4z"/>
	<path class="st11" d="M368.6,493.9c-0.1,1-0.6,1.5-1.4,1.5c-0.9,0-1.5-0.4-1.5-1.3c0-0.9,0.6-1.4,1.4-1.4
		C368,492.6,368.4,493.2,368.6,493.9z"/>
	<path class="st12" d="M314.5,255c0.9,0.1,1.4,0.7,1.3,1.5c0,0.8-0.5,1.4-1.4,1.4c-0.9,0-1.4-0.6-1.3-1.5
		C313.1,255.6,313.6,255.1,314.5,255z"/>
	<path class="st13" d="M240.4,259.5c0,0.9-0.4,1.4-1.3,1.5c-0.8,0.1-1.4-0.4-1.5-1.3c-0.1-0.9,0.4-1.4,1.3-1.5
		C239.8,258.2,240.2,258.7,240.4,259.5z"/>
	<path class="st14" d="M259.9,573.3c-0.2,0.8-0.6,1.5-1.5,1.5c-0.9,0-1.4-0.7-1.3-1.5c0-0.8,0.6-1.4,1.5-1.3
		C259.4,572,259.8,572.6,259.9,573.3z"/>
	<path class="st15" d="M359.6,208.1c0.1,0.9-0.2,1.6-1.1,1.7c-0.9,0-1.3-0.6-1.2-1.5c0.1-0.8,0.3-1.6,1.1-1.7
		C359.5,206.5,359.4,207.5,359.6,208.1z"/>
	<path class="st16" d="M397.7,563.8c1.1,0,1.6,0.4,1.7,1.3c0.1,0.8-0.4,1.2-1,1.3c-0.9,0.2-1.5-0.3-1.7-1.1
		C396.5,564.5,397.1,564,397.7,563.8z"/>
	<path class="st17" d="M374,225.8c-0.1,0.9-0.5,1.4-1.3,1.3c-0.7-0.1-1.2-0.5-1.1-1.3c0-0.7,0.5-1.2,1.2-1.2
		C373.6,224.7,373.8,225.4,374,225.8z"/>
	<circle class="st18" cx="285.5" cy="222.2" r="1.6"/>
	<circle class="st18" cx="282.7" cy="248.8" r="1.6"/>
	<circle class="st18" cx="228.6" cy="223.5" r="3"/>
	<circle class="st18" cx="129.1" cy="315.4" r="1.4"/>
	<circle class="st18" cx="127.8" cy="331.9" r="1.4"/>
	<circle class="st18" cx="142.1" cy="342.1" r="1.4"/>
	<circle class="st18" cx="110.6" cy="407.2" r="1.4"/>
	<circle class="st18" cx="161.9" cy="380" r="3"/>
	<circle class="st18" cx="320.6" cy="567" r="3"/>
	<circle class="st18" cx="398.1" cy="565.2" r="1.4"/>
	<circle class="st18" cx="368.9" cy="530.5" r="1.7"/>
	<circle class="st18" cx="367.2" cy="494" r="1.6"/>
	<circle class="st18" cx="399.8" cy="485.8" r="1.6"/>
	<circle class="st18" cx="486.5" cy="409.7" r="3"/>
	<circle class="st18" cx="437.1" cy="392.3" r="2.9"/>
	<circle class="st18" cx="473.5" cy="348.9" r="2.9"/>
	<circle class="st18" cx="276.3" cy="544" r="3.1"/>
	<circle class="st18" cx="258.5" cy="573.4" r="1.5"/>
	<circle class="st18" cx="239" cy="259.6" r="1.4"/>
	<circle class="st18" cx="312.4" cy="241.4" r="1.6"/>
	<circle class="st18" cx="358.6" cy="208.2" r="1.6"/>
	<circle class="st18" cx="372.8" cy="225.9" r="1.4"/>
	<circle class="st18" cx="314.4" cy="256.4" r="1.6"/>
	<circle class="st18" cx="328.2" cy="259.9" r="1.6"/>
	<circle class="st18" cx="285.5" cy="273.9" r="1.6"/>
	<path class="st19" d="M285.5,222.2"/>
	<polyline class="st19" points="285.5,222.2 282.7,248.8 285.5,273.9 	"/>
</g>
</svg>
