<svg width="2300" height="1607" viewBox="0 0 2300 1607" fill="none" xmlns="http://www.w3.org/2000/svg">
<path d="M0 0C894.242 0 1405.76 0 2300 0V1110.36C2300 1110.36 1884.48 1223.63 1230.33 1117.87C576.174 1012.11 0 1117.87 0 1117.87V0Z" fill="url(#paint0_linear_2_21)"/>
<ellipse cx="471.33" cy="161.234" rx="2.69938" ry="2.62904" fill="#F9F1DE"/>
<ellipse cx="471.33" cy="161.234" rx="2.69938" ry="2.62904" fill="#F9F1DE"/>
<ellipse cx="471.33" cy="161.234" rx="2.69938" ry="2.62904" fill="#F9F1DE"/>
<ellipse cx="471.33" cy="161.234" rx="2.69938" ry="2.62904" fill="#F9F1DE"/>
<ellipse cx="308.018" cy="510.896" rx="2.69938" ry="2.62904" fill="#F9F1DE"/>
<ellipse cx="308.018" cy="510.896" rx="2.69938" ry="2.62904" fill="#F9F1DE"/>
<ellipse cx="308.018" cy="510.896" rx="2.69938" ry="2.62904" fill="#F9F1DE"/>
<ellipse cx="308.018" cy="510.896" rx="2.69938" ry="2.62904" fill="#F9F1DE"/>
<ellipse cx="564.459" cy="155.976" rx="2.69938" ry="2.62904" fill="#F9F1DE"/>
<ellipse cx="564.459" cy="155.976" rx="2.69938" ry="2.62904" fill="#F9F1DE"/>
<ellipse cx="564.459" cy="155.976" rx="2.69938" ry="2.62904" fill="#F9F1DE"/>
<ellipse cx="564.459" cy="155.976" rx="2.69938" ry="2.62904" fill="#F9F1DE"/>
<ellipse cx="828.998" cy="229.589" rx="2.69938" ry="2.62904" fill="#D7B254"/>
<ellipse cx="1167.77" cy="539.816" rx="2.69938" ry="2.62904" fill="#F9F1DE"/>
<ellipse cx="1167.77" cy="539.816" rx="2.69938" ry="2.62904" fill="#F9F1DE"/>
<ellipse cx="1167.77" cy="539.816" rx="2.69938" ry="2.62904" fill="#F9F1DE"/>
<ellipse cx="1167.77" cy="539.816" rx="2.69938" ry="2.62904" fill="#F9F1DE"/>
<ellipse cx="1957.34" cy="936.8" rx="2.69938" ry="2.62904" fill="#F9F1DE"/>
<ellipse cx="1957.34" cy="936.8" rx="2.69938" ry="2.62904" fill="#F9F1DE"/>
<ellipse cx="1957.34" cy="936.8" rx="2.69938" ry="2.62904" fill="#F9F1DE"/>
<ellipse cx="1957.34" cy="936.8" rx="2.69938" ry="2.62904" fill="#F9F1DE"/>
<ellipse cx="2068.01" cy="425.452" rx="2.69938" ry="2.62904" fill="#F9F1DE"/>
<ellipse cx="2068.01" cy="425.452" rx="2.69938" ry="2.62904" fill="#F9F1DE"/>
<ellipse cx="2068.01" cy="425.452" rx="2.69938" ry="2.62904" fill="#F9F1DE"/>
<ellipse cx="2068.01" cy="425.452" rx="2.69938" ry="2.62904" fill="#F9F1DE"/>
<path d="M120.399 319.629C120.399 321.081 119.19 322.258 117.699 322.258C116.209 322.258 115 321.081 115 319.629C115 318.177 116.209 317 117.699 317C119.19 317 120.399 318.177 120.399 319.629Z" fill="#F9F1DE"/>
<path d="M120.399 319.629C120.399 321.081 119.19 322.258 117.699 322.258C116.209 322.258 115 321.081 115 319.629C115 318.177 116.209 317 117.699 317C119.19 317 120.399 318.177 120.399 319.629Z" fill="#F9F1DE"/>
<path d="M120.399 319.629C120.399 321.081 119.19 322.258 117.699 322.258C116.209 322.258 115 321.081 115 319.629C115 318.177 116.209 317 117.699 317C119.19 317 120.399 318.177 120.399 319.629Z" fill="#F9F1DE"/>
<path d="M120.399 319.629C120.399 321.081 119.19 322.258 117.699 322.258C116.209 322.258 115 321.081 115 319.629C115 318.177 116.209 317 117.699 317C119.19 317 120.399 318.177 120.399 319.629Z" fill="#F9F1DE"/>
<ellipse cx="100.699" cy="1076.63" rx="2.69938" ry="2.62904" fill="#F9F1DE"/>
<ellipse cx="100.699" cy="1076.63" rx="2.69938" ry="2.62904" fill="#F9F1DE"/>
<ellipse cx="100.699" cy="1076.63" rx="2.69938" ry="2.62904" fill="#F9F1DE"/>
<ellipse cx="100.699" cy="1076.63" rx="2.69938" ry="2.62904" fill="#F9F1DE"/>
<ellipse cx="1907.4" cy="224.331" rx="2.69938" ry="2.62904" fill="#F9F1DE"/>
<ellipse cx="1907.4" cy="224.331" rx="2.69938" ry="2.62904" fill="#F9F1DE"/>
<ellipse cx="1907.4" cy="224.331" rx="2.69938" ry="2.62904" fill="#F9F1DE"/>
<ellipse cx="1907.4" cy="224.331" rx="2.69938" ry="2.62904" fill="#F9F1DE"/>
<ellipse cx="1401.27" cy="133.629" rx="2.69938" ry="2.62904" fill="#F9F1DE"/>
<ellipse cx="1401.27" cy="133.629" rx="2.69938" ry="2.62904" fill="#F9F1DE"/>
<ellipse cx="1401.27" cy="133.629" rx="2.69938" ry="2.62904" fill="#F9F1DE"/>
<ellipse cx="1401.27" cy="133.629" rx="2.69938" ry="2.62904" fill="#F9F1DE"/>
<ellipse cx="1024.7" cy="839.526" rx="2.69938" ry="2.62904" fill="#F9F1DE"/>
<ellipse cx="1024.7" cy="839.526" rx="2.69938" ry="2.62904" fill="#F9F1DE"/>
<ellipse cx="1024.7" cy="839.526" rx="2.69938" ry="2.62904" fill="#F9F1DE"/>
<ellipse cx="1024.7" cy="839.526" rx="2.69938" ry="2.62904" fill="#F9F1DE"/>
<ellipse cx="434.888" cy="931.542" rx="2.69938" ry="2.62904" fill="#F9F1DE"/>
<ellipse cx="434.888" cy="931.542" rx="2.69938" ry="2.62904" fill="#F9F1DE"/>
<ellipse cx="434.888" cy="931.542" rx="2.69938" ry="2.62904" fill="#F9F1DE"/>
<ellipse cx="434.888" cy="931.542" rx="2.69938" ry="2.62904" fill="#F9F1DE"/>
<path d="M837.096 225.646C851.943 219.073 873.538 217.101 893.783 228.275" stroke="#D7B254"/>
<path d="M1553.62 396.011C1553.62 317.339 1612.2 250.978 1690.26 241.216L2300 164.972V1607L1617.27 1351.49C1578.99 1337.16 1553.62 1300.58 1553.62 1259.7V396.011Z" fill="#CFCFCF" fill-opacity="0.1"/>
<defs>
<linearGradient id="paint0_linear_2_21" x1="1258.7" y1="45.6132" x2="1689.17" y2="1367.82" gradientUnits="userSpaceOnUse">
<stop offset="0.0831105" stop-color="#000017"/>
<stop offset="1" stop-color="#151554"/>
</linearGradient>
</defs>
</svg>
